# This file uses centimeters as units for non-parametric coordinates.

mtllib capsule.mtl
g default
v 0.268545 2.566435 -5.545834
v 0.205536 2.660503 -5.552456
v 0.111235 2.723357 -5.556880
v 0.000000 2.745429 -5.558434
v -0.111235 2.723357 -5.556880
v -0.205535 2.660503 -5.552456
v -0.268545 2.566435 -5.545833
v -0.290671 2.455475 -5.538022
v -0.268545 2.344514 -5.530212
v -0.205536 2.250447 -5.523589
v -0.111235 2.187593 -5.519165
v -0.000000 2.165521 -5.517612
v 0.111235 2.187593 -5.519165
v 0.205536 2.250447 -5.523589
v 0.268545 2.344514 -5.530212
v 0.290671 2.455475 -5.538022
v 0.530478 2.687604 -5.369626
v 0.406010 2.873423 -5.382707
v 0.219731 2.997584 -5.391448
v 0.000000 3.041183 -5.394517
v -0.219731 2.997584 -5.391448
v -0.406010 2.873424 -5.382707
v -0.530478 2.687604 -5.369626
v -0.574185 2.468416 -5.354196
v -0.530478 2.249227 -5.338766
v -0.406010 2.063408 -5.325685
v -0.219731 1.939247 -5.316945
v -0.000000 1.895648 -5.313876
v 0.219731 1.939247 -5.316945
v 0.406010 2.063408 -5.325685
v 0.530478 2.249227 -5.338766
v 0.574185 2.468415 -5.354196
v 0.779349 2.811648 -5.075521
v 0.596488 3.084644 -5.094739
v 0.322817 3.267053 -5.107581
v 0.000000 3.331107 -5.112089
v -0.322816 3.267054 -5.107581
v -0.596487 3.084644 -5.094740
v -0.779348 2.811649 -5.075521
v -0.843561 2.489629 -5.052852
v -0.779348 2.167610 -5.030183
v -0.596488 1.894614 -5.010966
v -0.322817 1.712205 -4.998124
v -0.000000 1.648151 -4.993616
v 0.322817 1.712205 -4.998124
v 0.596487 1.894614 -5.010965
v 0.779348 2.167609 -5.030183
v 0.843561 2.489629 -5.052852
v 1.009029 2.935514 -4.670762
v 0.772277 3.288963 -4.695642
v 0.417954 3.525130 -4.712268
v 0.000001 3.608061 -4.718106
v -0.417953 3.525131 -4.712268
v -0.772277 3.288964 -4.695642
v -1.009028 2.935515 -4.670761
v -1.092165 2.518593 -4.641412
v -1.009029 2.101672 -4.612062
v -0.772277 1.748223 -4.587180
v -0.417954 1.512056 -4.570555
v -0.000000 1.429125 -4.564717
v 0.417953 1.512055 -4.570555
v 0.772277 1.748222 -4.587180
v 1.009029 2.101671 -4.612062
v 1.092165 2.518593 -4.641412
v 1.317617 3.077669 -4.471625
v 1.008461 3.539213 -4.504117
v 0.545775 3.847607 -4.525826
v 0.000001 3.955900 -4.533449
v -0.545774 3.847608 -4.525826
v -1.008460 3.539214 -4.504116
v -1.317616 3.077671 -4.471625
v -1.426178 2.533244 -4.433300
v -1.317617 1.988817 -4.394973
v -1.008460 1.527273 -4.362483
v -0.545775 1.218880 -4.340773
v -0.000000 1.110587 -4.333150
v 0.545774 1.218880 -4.340773
v 1.008460 1.527273 -4.362483
v 1.317616 1.988816 -4.394973
v 1.426178 2.533244 -4.433300
v 1.507516 3.201889 -3.827189
v 1.153803 3.729951 -3.864362
v 0.624434 4.082791 -3.889201
v 0.000001 4.206693 -3.897923
v -0.624432 4.082792 -3.889201
v -1.153802 3.729952 -3.864362
v -1.507515 3.201891 -3.827189
v -1.631723 2.578999 -3.783339
v -1.507515 1.956107 -3.739490
v -1.153802 1.428045 -3.702317
v -0.624434 1.075205 -3.677478
v -0.000000 0.951304 -3.668755
v 0.624433 1.075205 -3.677478
v 1.153802 1.428045 -3.702317
v 1.507515 1.956106 -3.739489
v 1.631723 2.578998 -3.783339
v 1.660294 3.316320 -3.102834
v 1.270734 3.897899 -3.143775
v 0.687717 4.286498 -3.171131
v 0.000001 4.422955 -3.180737
v -0.687715 4.286498 -3.171131
v -1.270733 3.897901 -3.143775
v -1.660293 3.316322 -3.102834
v -1.797089 2.630304 -3.054540
v -1.660294 1.944285 -3.006248
v -1.270734 1.362707 -2.965306
v -0.687716 0.974108 -2.937950
v -0.000000 0.837651 -2.928344
v 0.687716 0.974108 -2.937950
v 1.270734 1.362706 -2.965306
v 1.660294 1.944285 -3.006247
v 1.797089 2.630303 -3.054541
v 1.697763 3.368185 -2.871075
v 1.356377 4.038921 -2.789768
v 0.734066 4.453709 -2.818968
v 0.000001 4.599364 -2.829221
v -0.734064 4.453710 -2.818967
v -1.356375 4.038922 -2.789768
v -1.837045 3.368187 -2.871075
v -1.870292 2.708075 -2.824605
v -1.772191 1.953642 -2.642972
v -1.356376 1.332868 -2.599272
v -0.734066 0.918079 -2.570072
v -0.000000 0.772425 -2.559818
v 0.734065 0.918079 -2.570072
v 1.356376 1.332867 -2.599272
v 1.772191 1.953641 -2.642972
v 1.829392 2.708074 -2.824605
v 1.759298 3.459702 -1.546682
v 1.408620 4.149545 -1.532629
v 0.762340 4.580309 -1.562953
v 0.000001 4.731574 -1.573601
v -0.762339 4.580310 -1.562953
v -1.408619 4.149546 -1.532629
v -1.898579 3.459704 -1.546682
v -1.936897 2.774166 -1.498422
v -1.840450 1.983947 -1.380178
v -1.408620 1.339262 -1.334795
v -0.762340 0.908498 -1.304471
v -0.000000 0.757233 -1.293822
v 0.762339 0.908498 -1.304471
v 1.408619 1.339262 -1.334795
v 1.840450 1.983946 -1.380178
v 1.895997 2.774165 -1.498422
v 1.779979 3.531359 -0.650764
v 1.426179 4.227046 -0.681742
v 0.771843 4.663180 -0.712445
v 0.000001 4.816330 -0.723226
v -0.771841 4.663181 -0.712445
v -1.426177 4.227047 -0.681743
v -1.919260 3.531361 -0.650764
v -1.959281 2.837278 -0.601903
v -1.863391 2.034454 -0.527392
v -1.426178 1.381733 -0.481443
v -0.771842 0.945599 -0.450740
v -0.000000 0.792449 -0.439959
v 0.771842 0.945599 -0.450740
v 1.426178 1.381733 -0.481443
v 1.863391 2.034453 -0.527392
v 1.918382 2.837277 -0.601903
v 1.759298 3.585926 0.246356
v 1.408620 4.269517 0.171610
v 0.762340 4.700281 0.141286
v 0.000001 4.851547 0.130637
v -0.762339 4.700282 0.141286
v -1.408619 4.269518 0.171610
v -1.898579 3.585927 0.246356
v -1.936897 2.900389 0.294616
v -1.840450 2.103919 0.324060
v -1.408620 1.459235 0.369444
v -0.762340 1.028470 0.399768
v -0.000000 0.877205 0.410416
v 0.762339 1.028469 0.399768
v 1.408619 1.459234 0.369444
v 1.840450 2.103919 0.324060
v 1.895997 2.900389 0.294616
v 1.697763 3.622058 1.122591
v 1.356377 4.275912 1.006417
v 0.734066 4.690700 0.977217
v 0.000001 4.836355 0.966964
v -0.734064 4.690701 0.977217
v -1.356375 4.275913 1.006417
v -1.837045 3.622060 1.122591
v -1.870292 2.961947 1.169061
v -1.772191 2.190632 1.153213
v -1.356376 1.569858 1.196913
v -0.734066 1.155070 1.226113
v -0.000000 1.009416 1.236366
v 0.734065 1.155070 1.226113
v 1.356376 1.569858 1.196914
v 1.772191 2.190632 1.153213
v 1.829392 2.961946 1.169061
v 1.596890 3.642349 2.303382
v 1.270734 4.246072 2.132188
v 0.687717 4.634671 2.104832
v 0.000001 4.771129 2.095226
v -0.687715 4.634671 2.104832
v -1.270733 4.246074 2.132188
v -1.736172 3.642351 2.303382
v -1.761108 3.023918 2.346917
v -1.660294 2.292459 2.269716
v -1.270734 1.710880 2.310657
v -0.687716 1.322282 2.338013
v -0.000000 1.185824 2.347619
v 0.687716 1.322282 2.338013
v 1.270734 1.710880 2.310656
v 1.660294 2.292458 2.269716
v 1.720208 3.023917 2.346918
v 1.507516 3.652672 2.576305
v 1.153803 4.180734 2.539131
v 0.624434 4.533575 2.514292
v 0.000001 4.657476 2.505570
v -0.624432 4.533575 2.514292
v -1.153802 4.180735 2.539131
v -1.507515 3.652674 2.576304
v -1.631723 3.029782 2.620154
v -1.507515 2.406890 2.664003
v -1.153802 1.878828 2.701177
v -0.624434 1.525988 2.726016
v -0.000000 1.402087 2.734738
v 0.624433 1.525988 2.726016
v 1.153802 1.878828 2.701177
v 1.507515 2.406889 2.664003
v 1.631723 3.029781 2.620154
v 1.317617 3.619963 3.231788
v 1.008461 4.081506 3.199298
v 0.545775 4.389900 3.177588
v 0.000001 4.498193 3.169965
v -0.545774 4.389900 3.177588
v -1.008460 4.081507 3.199298
v -1.317616 3.619964 3.231788
v -1.426178 3.075537 3.270114
v -1.317617 2.531109 3.308440
v -1.008460 2.069566 3.340931
v -0.545775 1.761173 3.362641
v -0.000000 1.652879 3.370264
v 0.545774 1.761172 3.362641
v 1.008460 2.069566 3.340931
v 1.317616 2.531109 3.308440
v 1.426178 3.075536 3.270114
v 1.009029 3.507107 3.448877
v 0.772277 3.860556 3.423995
v 0.417954 4.096723 3.407370
v 0.000001 4.179655 3.401531
v -0.417953 4.096724 3.407370
v -0.772277 3.860557 3.423995
v -1.009028 3.507108 3.448877
v -1.092165 3.090187 3.478227
v -1.009029 2.673265 3.507576
v -0.772277 2.319816 3.532457
v -0.417954 2.083649 3.549083
v -0.000000 2.000718 3.554921
v 0.417953 2.083649 3.549083
v 0.772277 2.319816 3.532457
v 1.009029 2.673265 3.507576
v 1.092165 3.090186 3.478226
v 0.779349 3.441170 3.866998
v 0.596488 3.714165 3.847781
v 0.322817 3.896574 3.834938
v 0.000000 3.960628 3.830430
v -0.322816 3.896575 3.834938
v -0.596487 3.714165 3.847779
v -0.779348 3.441171 3.866998
v -0.843561 3.119151 3.889667
v -0.779348 2.797131 3.912336
v -0.596488 2.524136 3.931553
v -0.322817 2.341726 3.944395
v -0.000000 2.277672 3.948903
v 0.322817 2.341726 3.944395
v 0.596487 2.524136 3.931554
v 0.779348 2.797131 3.912336
v 0.843561 3.119151 3.889667
v 0.530478 3.359552 4.175581
v 0.406010 3.545371 4.162500
v 0.219731 3.669532 4.153759
v 0.000000 3.713131 4.150690
v -0.219731 3.669532 4.153759
v -0.406010 3.545372 4.162500
v -0.530478 3.359553 4.175581
v -0.574185 3.140364 4.191011
v -0.530478 2.921175 4.206441
v -0.406010 2.735356 4.219522
v -0.219731 2.611196 4.228263
v -0.000000 2.567596 4.231332
v 0.219731 2.611196 4.228263
v 0.406010 2.735356 4.219522
v 0.530478 2.921175 4.206441
v 0.574185 3.140364 4.191011
v 0.268545 3.264265 4.367027
v 0.205536 3.358333 4.360403
v 0.111235 3.421187 4.355980
v 0.000000 3.443258 4.354426
v -0.111235 3.421187 4.355980
v -0.205535 3.358333 4.360403
v -0.268545 3.264265 4.367027
v -0.290671 3.153305 4.374837
v -0.268545 3.042344 4.382648
v -0.205536 2.948277 4.389271
v -0.111235 2.885423 4.393695
v -0.000000 2.863351 4.395249
v 0.111235 2.885423 4.393695
v 0.205536 2.948277 4.389271
v 0.268545 3.042344 4.382648
v 0.290671 3.153305 4.374837
v 0.000000 2.451126 -5.599805
v 0.000000 3.157654 4.436619
v 1.405494 3.218395 -2.994968
v 1.077317 3.712785 -3.023241
v 1.162960 3.853807 -2.669234
v 1.517390 3.320220 -2.638202
v 0.583638 4.043983 -3.042284
v 0.629988 4.211195 -2.690120
v 0.000001 4.160453 -3.049000
v 0.000001 4.336861 -2.697484
v -0.583637 4.043984 -3.042284
v -0.629986 4.211195 -2.690120
v -1.077317 3.712786 -3.023241
v -1.162958 3.853808 -2.669234
v -1.405493 3.218396 -2.994968
v -1.517390 3.320222 -2.638202
v -1.518758 2.637087 -2.961954
v -1.639874 2.692679 -2.601933
v -1.400947 2.057641 -2.929283
v -1.512844 2.066998 -2.566007
v -1.070901 1.567732 -2.901837
v -1.156543 1.537893 -2.535802
v -0.579111 1.240996 -2.883619
v -0.625460 1.184967 -2.515741
v -0.000000 1.126370 -2.877244
v -0.000000 1.061144 -2.508718
v 0.579110 1.240996 -2.883619
v 0.625460 1.184967 -2.515741
v 1.070901 1.567731 -2.901837
v 1.156543 1.537892 -2.535803
v 1.400947 2.057640 -2.929282
v 1.512844 2.066997 -2.566007
v 1.518758 2.637087 -2.961954
v 1.639874 2.692678 -2.601933
v 1.407642 3.552407 2.074103
v 1.076237 4.044684 2.043966
v 0.959305 3.979346 2.450909
v 1.254864 3.540585 2.477279
v 0.582058 4.373066 2.023912
v 0.518775 4.271969 2.433372
v 0.000001 4.488278 2.016885
v 0.000001 4.374624 2.427228
v -0.582057 4.373066 2.023912
v -0.518774 4.271970 2.433372
v -1.076236 4.044686 2.043966
v -0.959304 3.979347 2.450909
v -1.407642 3.552408 2.074103
v -1.254863 3.540586 2.477278
v -1.525555 2.970411 2.109847
v -1.360188 3.021715 2.508577
v -1.411268 2.386923 2.145807
v -1.258489 2.501355 2.540094
v -1.081359 1.891054 2.176467
v -0.964428 2.059002 2.566988
v -0.585677 1.559087 2.197045
v -0.522394 1.762793 2.585047
v -0.000000 1.442392 2.204288
v -0.000000 1.658655 2.591407
v 0.585676 1.559087 2.197045
v 0.522394 1.762793 2.585047
v 1.081359 1.891053 2.176467
v 0.964428 2.059001 2.566987
v 1.411268 2.386922 2.145807
v 1.258489 2.501354 2.540095
v 1.525555 2.970410 2.109847
v 1.360188 3.021715 2.508577
v -1.707156 3.150233 -2.364173
v -1.716391 2.966869 -2.351265
v -1.750231 3.011145 -1.584782
v -1.739587 3.201572 -1.598188
v -1.771788 3.077041 -0.618782
v -1.760671 3.269842 -0.632354
v -1.750382 3.136437 0.264126
v -1.739738 3.326864 0.250721
v -1.686366 3.189746 1.190445
v -1.677131 3.373111 1.177537
v -1.625710 3.223753 1.886040
v -1.618783 3.395540 1.873947
v 1.642898 2.943387 -2.349997
v 1.606335 3.126752 -2.362906
v 1.638758 3.178393 -1.596728
v 1.676730 2.987966 -1.583322
v 1.659833 3.246962 -0.630744
v 1.698278 3.054161 -0.617171
v 1.638918 3.303712 0.252264
v 1.676890 3.113285 0.265669
v 1.576376 3.349066 1.178850
v 1.612940 3.165702 1.191758
v 1.518077 3.370871 1.875055
v 1.552332 3.199084 1.887149
vt 0.769100 0.054970
vt 0.767896 0.063009
vt 0.742842 0.061986
vt 0.743651 0.046209
vt 0.769421 0.071252
vt 0.746588 0.077614
vt 0.773394 0.078869
vt 0.754364 0.091976
vt 0.779390 0.085117
vt 0.765528 0.104065
vt 0.786850 0.089333
vt 0.779311 0.112965
vt 0.795078 0.090946
vt 0.794819 0.117831
vt 0.803229 0.089496
vt 0.828862 0.513559
vt 0.838560 0.542511
vt 0.818303 0.525285
vt 0.834527 0.549604
vt 0.811846 0.539750
vt 0.832922 0.557851
vt 0.809582 0.555679
vt 0.833789 0.566376
vt 0.811441 0.571850
vt 0.837017 0.574336
vt 0.817219 0.587095
vt 0.842345 0.580916
vt 0.826592 0.600286
vt 0.849353 0.585336
vt 0.839099 0.610313
vt 0.857434 0.586867
vt 0.749385 0.031514
vt 0.713425 0.063803
vt 0.712399 0.040414
vt 0.720161 0.086552
vt 0.731946 0.107443
vt 0.748050 0.125422
vt 0.767633 0.139552
vt 0.789725 0.148927
vt 0.804601 0.489251
vt 0.791673 0.508741
vt 0.784192 0.530948
vt 0.782079 0.554571
vt 0.785148 0.578256
vt 0.793159 0.600760
vt 0.805790 0.620886
vt 0.822617 0.637434
vt 0.717614 0.017608
vt 0.678995 0.069027
vt 0.674693 0.038031
vt 0.689421 0.098710
vt 0.705374 0.125924
vt 0.726233 0.149784
vt 0.751219 0.169589
vt 0.779371 0.184605
vt 0.771523 0.465557
vt 0.757901 0.493025
vt 0.750793 0.523435
vt 0.749584 0.554792
vt 0.754042 0.585856
vt 0.763970 0.615568
vt 0.779135 0.642929
vt 0.799248 0.666845
vt 0.677740 0.007484
vt 0.651571 0.074970
vt 0.644612 0.038274
vt 0.664641 0.109439
vt 0.683405 0.140907
vt 0.707394 0.168737
vt 0.735946 0.192575
vt 0.768437 0.212354
vt 0.743767 0.446775
vt 0.730124 0.482445
vt 0.723586 0.519011
vt 0.723190 0.555690
vt 0.728576 0.591709
vt 0.739584 0.626296
vt 0.756101 0.658767
vt 0.778171 0.688641
vt 0.644784 0.000000
vt 0.605666 0.090383
vt 0.593780 0.047068
vt 0.622760 0.131028
vt 0.645587 0.168195
vt 0.673890 0.201297
vt 0.706875 0.230308
vt 0.743455 0.256047
vt 0.688813 0.427950
vt 0.679897 0.472215
vt 0.676069 0.516425
vt 0.677573 0.560060
vt 0.684458 0.602726
vt 0.696737 0.643878
vt 0.714368 0.683058
vt 0.737275 0.720093
vt 0.586392 0.002333
vt 0.557317 0.112630
vt 0.542055 0.065410
vt 0.577582 0.157874
vt 0.603910 0.199689
vt 0.635804 0.236930
vt 0.671844 0.269361
vt 0.709894 0.298507
vt 0.627219 0.419739
vt 0.624426 0.470210
vt 0.624021 0.519065
vt 0.627907 0.567568
vt 0.636130 0.615223
vt 0.648902 0.661427
vt 0.666139 0.705646
vt 0.687680 0.747489
vt 0.526579 0.017000
vt 0.503726 0.048443
vt 0.538930 0.121618
vt 0.478833 0.099444
vt 0.476030 0.050450
vt 0.560186 0.168339
vt 0.488972 0.148827
vt 0.587729 0.211869
vt 0.501514 0.198288
vt 0.620853 0.250622
vt 0.515481 0.247954
vt 0.657743 0.284047
vt 0.531229 0.297693
vt 0.695514 0.313146
vt 0.552080 0.345541
vt 0.603487 0.424820
vt 0.574190 0.418710
vt 0.602707 0.471064
vt 0.573667 0.469540
vt 0.604320 0.520623
vt 0.578164 0.521699
vt 0.609249 0.570424
vt 0.584591 0.574006
vt 0.617848 0.619496
vt 0.593878 0.625748
vt 0.630511 0.667236
vt 0.606463 0.676300
vt 0.647090 0.713079
vt 0.622353 0.725181
vt 0.667448 0.756115
vt 0.641365 0.771652
vt 0.507535 0.030466
vt 0.475765 0.002624
vt 0.454998 0.049229
vt 0.457465 0.101102
vt 0.366489 0.116332
vt 0.358221 0.062213
vt 0.468609 0.152135
vt 0.380167 0.169137
vt 0.481521 0.202615
vt 0.394347 0.221848
vt 0.495588 0.253256
vt 0.408843 0.274320
vt 0.511096 0.304862
vt 0.422776 0.326252
vt 0.529721 0.360520
vt 0.440807 0.382833
vt 0.503788 0.388373
vt 0.507558 0.400432
vt 0.454812 0.414458
vt 0.451349 0.401621
vt 0.550043 0.408735
vt 0.552308 0.469751
vt 0.462100 0.490923
vt 0.455125 0.436169
vt 0.558311 0.524216
vt 0.471437 0.544040
vt 0.565492 0.577606
vt 0.480637 0.597627
vt 0.575017 0.630404
vt 0.490563 0.651370
vt 0.587372 0.682152
vt 0.501733 0.705264
vt 0.602620 0.732663
vt 0.514244 0.759161
vt 0.620596 0.781952
vt 0.528232 0.813167
vt 0.453223 0.000001
vt 0.347888 0.004457
vt 0.415611 0.021281
vt 0.417058 0.033731
vt 0.359729 0.040049
vt 0.357233 0.026102
vt 0.306274 0.130678
vt 0.292419 0.076559
vt 0.321166 0.183626
vt 0.335892 0.236249
vt 0.350202 0.288585
vt 0.363846 0.340681
vt 0.379259 0.396890
vt 0.387270 0.430036
vt 0.384184 0.417239
vt 0.402610 0.504158
vt 0.392024 0.450159
vt 0.413044 0.556786
vt 0.423100 0.610155
vt 0.433110 0.664149
vt 0.443222 0.718569
vt 0.453488 0.773223
vt 0.463879 0.828021
vt 0.277494 0.019809
vt 0.286560 0.054989
vt 0.283004 0.041310
vt 0.246827 0.148155
vt 0.227822 0.096829
vt 0.262748 0.200279
vt 0.277844 0.252130
vt 0.291998 0.303796
vt 0.305330 0.355280
vt 0.317482 0.411513
vt 0.325306 0.444343
vt 0.322463 0.431619
vt 0.343533 0.517056
vt 0.329467 0.464447
vt 0.354649 0.568895
vt 0.365342 0.621551
vt 0.375213 0.675006
vt 0.383995 0.729018
vt 0.391690 0.783360
vt 0.398405 0.838001
vt 0.208432 0.041885
vt 0.220995 0.075886
vt 0.216272 0.062594
vt 0.189556 0.168864
vt 0.166645 0.121851
vt 0.206217 0.219046
vt 0.221469 0.269331
vt 0.235180 0.319692
vt 0.247904 0.370095
vt 0.257316 0.425808
vt 0.260693 0.459672
vt 0.258180 0.446991
vt 0.285211 0.529620
vt 0.268077 0.478728
vt 0.297258 0.580065
vt 0.308753 0.631518
vt 0.318470 0.683788
vt 0.325661 0.736470
vt 0.330548 0.789351
vt 0.333432 0.842040
vt 0.143445 0.069739
vt 0.154741 0.103630
vt 0.149175 0.091157
vt 0.113092 0.200982
vt 0.087778 0.158858
vt 0.130300 0.247287
vt 0.145235 0.294519
vt 0.158202 0.342757
vt 0.169117 0.392030
vt 0.179212 0.447276
vt 0.212506 0.470568
vt 0.211279 0.458682
vt 0.204958 0.548404
vt 0.181826 0.495733
vt 0.220791 0.597047
vt 0.233118 0.644845
vt 0.241809 0.692649
vt 0.246948 0.740885
vt 0.248132 0.789448
vt 0.245349 0.838659
vt 0.063064 0.119778
vt 0.108475 0.127581
vt 0.102584 0.117337
vt 0.070136 0.172056
vt 0.093553 0.211566
vt 0.066814 0.228384
vt 0.860999 0.966390
vt 0.111100 0.255325
vt 0.083205 0.268524
vt 0.125736 0.300916
vt 0.097094 0.310780
vt 0.138325 0.347645
vt 0.108474 0.354208
vt 0.148420 0.395131
vt 0.117325 0.398088
vt 0.151650 0.444011
vt 0.120974 0.442490
vt 0.164157 0.516850
vt 0.136106 0.533884
vt 0.185204 0.557634
vt 0.154788 0.570274
vt 0.201390 0.602511
vt 0.171864 0.610670
vt 0.213872 0.648299
vt 0.184799 0.653511
vt 0.222451 0.694547
vt 0.192986 0.697571
vt 0.226859 0.741206
vt 0.196538 0.742019
vt 0.226960 0.787888
vt 0.194724 0.786095
vt 0.222500 0.833967
vt 0.187426 0.828500
vt 0.044729 0.135584
vt 0.022370 0.159460
vt 0.855335 0.946747
vt 0.815943 0.963176
vt 0.801311 0.917537
vt 0.835418 0.901762
vt 0.774907 0.974955
vt 0.766297 0.927965
vt 0.732219 0.979881
vt 0.730425 0.932046
vt 0.689012 0.977048
vt 0.694396 0.929248
vt 0.646656 0.966628
vt 0.659072 0.919654
vt 0.605833 0.949954
vt 0.625050 0.903828
vt 0.564132 0.930751
vt 0.067481 0.570661
vt 0.135107 0.577801
vt 0.091394 0.601880
vt 0.153077 0.616592
vt 0.109334 0.634401
vt 0.166284 0.657179
vt 0.121929 0.668495
vt 0.174357 0.699039
vt 0.129070 0.703802
vt 0.177256 0.741330
vt 0.130572 0.739557
vt 0.174357 0.783293
vt 0.126080 0.775025
vt 0.165145 0.824389
vt 0.115213 0.809748
vt 0.150724 0.866954
vt 0.869287 0.881006
vt 0.791496 0.891760
vt 0.819709 0.877064
vt 0.761429 0.901270
vt 0.730405 0.904920
vt 0.699345 0.902343
vt 0.669272 0.893616
vt 0.641371 0.879182
vt 0.046489 0.597332
vt 0.068010 0.619833
vt 0.084778 0.646401
vt 0.096528 0.675436
vt 0.102982 0.705913
vt 0.103903 0.736851
vt 0.099075 0.767269
vt 0.088352 0.796095
vt 0.844503 0.857723
vt 0.776627 0.861027
vt 0.796955 0.848208
vt 0.754002 0.869134
vt 0.730267 0.872138
vt 0.706586 0.869829
vt 0.684184 0.862244
vt 0.664415 0.849625
vt 0.022780 0.630329
vt 0.041314 0.645149
vt 0.055798 0.664013
vt 0.065824 0.685673
vt 0.071072 0.708925
vt 0.071304 0.732594
vt 0.066365 0.755479
vt 0.056191 0.776289
vt 0.813694 0.831117
vt 0.761746 0.836183
vt 0.774645 0.826225
vt 0.746600 0.842438
vt 0.730378 0.844708
vt 0.714231 0.842869
vt 0.699326 0.836971
vt 0.686872 0.827248
vt 0.007522 0.661447
vt 0.021581 0.669428
vt 0.032655 0.681198
vt 0.040282 0.695585
vt 0.044126 0.711441
vt 0.043981 0.727628
vt 0.039759 0.742992
vt 0.031516 0.756341
vt 0.784076 0.812964
vt 0.746821 0.816441
vt 0.752875 0.810605
vt 0.739095 0.820159
vt 0.730557 0.821511
vt 0.722061 0.820412
vt 0.714452 0.816938
vt 0.708570 0.811338
vt 0.000415 0.689887
vt 0.008214 0.692596
vt 0.014588 0.697996
vt 0.019032 0.705275
vt 0.021227 0.713602
vt 0.021011 0.722142
vt 0.018370 0.730050
vt 0.013453 0.736475
vt 0.756394 0.803084
vt 0.790926 0.066596
vt 0.000000 0.715796
vt 0.328040 0.897283
vt 0.401499 0.895094
vt 0.476384 0.885495
vt 0.549435 0.866394
vt 0.689571 0.794539
vt 0.666278 0.812610
vt 0.650186 0.828595
vt 0.712176 0.788602
vt 0.773134 0.048064
vt 0.764782 0.755564
vt 0.806702 0.715548
vt 0.823917 0.685600
vt 0.843095 0.649202
vt 0.854125 0.616088
vt 0.209945 0.876213
vt 0.176157 0.867629
vt 0.895467 0.930421
vt 0.231434 0.888738
vt 0.006608 0.740560
vt 0.019481 0.766433
vt 0.040829 0.793756
vt 0.071400 0.821396
vt 0.097348 0.843157
vt 0.730592 0.800057
vt 0.155008 0.491173
vt 0.122487 0.484785
vt 0.114168 0.539504
vt 0.705237 0.804061
vt 0.678109 0.814112
vt 0.648630 0.832304
vt 0.617832 0.859333
vt 0.593355 0.882148
vt 0.728499 0.341775
vt 0.570918 0.393306
vt 0.746845 0.329284
vt 0.854472 0.561119
vt 0.844780 0.537473
vt 0.782221 0.280068
vt 0.805143 0.227571
vt 0.809452 0.193412
vt 0.813265 0.152632
vt 0.811037 0.117870
vt 0.504049 0.003715
vt 0.522981 0.074180
vt 0.577805 0.336434
vt 0.596240 0.380243
vt 0.558421 0.289488
vt 0.542740 0.241017
vt 0.529225 0.191745
vt 0.516443 0.142996
vt 0.507000 0.095370
vt 0.897765 0.952656
vt 0.045942 0.192017
vt 0.599908 0.970075
vt 0.561217 0.954166
vt 0.641979 0.986449
vt 0.686803 0.997107
vt 0.732819 1.000000
vt 0.778166 0.994842
vt 0.821199 0.982724
vn 0.449804 0.124516 -0.884405
vn 0.344265 0.282077 -0.895497
vn 0.490518 0.438726 -0.752936
vn 0.640891 0.214231 -0.737132
vn 0.186314 0.387355 -0.902908
vn 0.265466 0.588729 -0.763496
vn -0.000000 0.424323 -0.905511
vn 0.000000 0.641404 -0.767204
vn -0.186313 0.387356 -0.902908
vn -0.265464 0.588730 -0.763496
vn -0.344264 0.282077 -0.895497
vn -0.490516 0.438726 -0.752937
vn -0.449804 0.124516 -0.884405
vn -0.640891 0.214231 -0.737133
vn -0.486864 -0.061337 -0.871322
vn -0.693695 -0.050578 -0.718491
vn -0.449803 -0.247193 -0.858239
vn -0.640891 -0.315389 -0.699849
vn -0.344265 -0.404751 -0.847147
vn -0.490516 -0.539884 -0.684046
vn -0.186317 -0.510029 -0.839736
vn -0.265466 -0.689888 -0.673485
vn -0.000000 -0.547000 -0.837132
vn -0.000000 -0.742562 -0.669777
vn 0.186317 -0.510030 -0.839735
vn 0.265467 -0.689888 -0.673485
vn 0.344265 -0.404752 -0.847147
vn 0.490517 -0.539885 -0.684045
vn 0.449802 -0.247192 -0.858239
vn 0.640891 -0.315390 -0.699849
vn 0.486864 -0.061337 -0.871322
vn 0.693695 -0.050579 -0.718491
vn 0.582149 0.540850 -0.607111
vn 0.760613 0.274419 -0.588355
vn 0.315057 0.718875 -0.619643
vn 0.000001 0.781389 -0.624044
vn -0.315055 0.718876 -0.619643
vn -0.582148 0.540851 -0.607111
vn -0.760614 0.274418 -0.588355
vn -0.823282 -0.039860 -0.566231
vn -0.760614 -0.354139 -0.544107
vn -0.582148 -0.620572 -0.525351
vn -0.315056 -0.798597 -0.512819
vn -0.000000 -0.861110 -0.508418
vn 0.315057 -0.798596 -0.512819
vn 0.582148 -0.620572 -0.525351
vn 0.760613 -0.354140 -0.544107
vn 0.823282 -0.039861 -0.566231
vn 0.486607 0.434455 -0.757933
vn 0.635782 0.211750 -0.742255
vn 0.263350 0.583263 -0.768408
vn 0.000001 0.635518 -0.772086
vn -0.263349 0.583263 -0.768408
vn -0.486607 0.434456 -0.757932
vn -0.635783 0.211750 -0.742255
vn -0.688166 -0.050950 -0.723762
vn -0.635783 -0.313650 -0.705268
vn -0.486608 -0.536356 -0.689591
vn -0.263350 -0.685164 -0.679115
vn -0.000000 -0.737418 -0.675437
vn 0.263350 -0.685163 -0.679116
vn 0.486607 -0.536356 -0.689591
vn 0.635783 -0.313650 -0.705269
vn 0.688166 -0.050951 -0.723762
vn 0.621589 0.586578 -0.519185
vn 0.812145 0.302095 -0.499159
vn 0.336402 0.776664 -0.532567
vn 0.000001 0.843413 -0.537266
vn -0.336401 0.776664 -0.532566
vn -0.621588 0.586579 -0.519185
vn -0.812145 0.302096 -0.499159
vn -0.879059 -0.033476 -0.475536
vn -0.812145 -0.369047 -0.451913
vn -0.621589 -0.653530 -0.431886
vn -0.336401 -0.843616 -0.418505
vn -0.000000 -0.910365 -0.413806
vn 0.336401 -0.843616 -0.418505
vn 0.621589 -0.653530 -0.431886
vn 0.812145 -0.369047 -0.451913
vn 0.879059 -0.033476 -0.475536
vn 0.683916 0.664391 -0.301402
vn 0.893579 0.351382 -0.279368
vn 0.370133 0.873537 -0.316126
vn 0.000001 0.946979 -0.321296
vn -0.370132 0.873537 -0.316126
vn -0.683916 0.664391 -0.301402
vn -0.893579 0.351383 -0.279368
vn -0.967203 -0.017837 -0.253376
vn -0.893580 -0.387056 -0.227384
vn -0.683917 -0.700064 -0.205350
vn -0.370133 -0.909210 -0.190626
vn -0.000000 -0.982652 -0.185456
vn 0.370133 -0.909210 -0.190626
vn 0.683916 -0.700065 -0.205350
vn 0.893579 -0.387056 -0.227384
vn 0.967203 -0.017837 -0.253376
vn 0.689662 0.672456 -0.268643
vn 0.901086 0.356818 -0.246423
vn 0.373243 0.883359 -0.283490
vn 0.000000 0.957419 -0.288703
vn -0.373242 0.883360 -0.283490
vn -0.689661 0.672457 -0.268643
vn -0.901086 0.356819 -0.246423
vn -0.975329 -0.015502 -0.220213
vn -0.901086 -0.387823 -0.194003
vn -0.689662 -0.703461 -0.171784
vn -0.373242 -0.914364 -0.156937
vn -0.000000 -0.988423 -0.151723
vn 0.373242 -0.914364 -0.156937
vn 0.689661 -0.703461 -0.171784
vn 0.901086 -0.387823 -0.194003
vn 0.975329 -0.015503 -0.220213
vn 0.874153 0.319843 -0.365456
vn 0.666644 0.622878 -0.409400
vn 0.647411 0.641161 -0.412033
vn 0.859410 0.352654 -0.370201
vn 0.359719 0.823646 -0.438416
vn 0.346682 0.828825 -0.439160
vn 0.000000 0.893767 -0.448532
vn 0.000000 0.893767 -0.448532
vn -0.359718 0.823647 -0.438417
vn -0.346681 0.828825 -0.439160
vn -0.666643 0.622879 -0.409400
vn -0.647410 0.641162 -0.412033
vn -0.874153 0.319843 -0.365455
vn -0.859410 0.352655 -0.370200
vn -0.948899 -0.040487 -0.312971
vn -0.947790 0.000279 -0.318897
vn -0.877772 -0.402381 -0.260010
vn -0.892177 -0.365491 -0.265400
vn -0.671608 -0.709044 -0.214941
vn -0.693755 -0.686338 -0.218273
vn -0.363120 -0.913224 -0.184839
vn -0.379458 -0.906351 -0.185851
vn -0.000000 -0.984695 -0.174285
vn -0.000000 -0.984695 -0.174285
vn 0.363119 -0.913225 -0.184839
vn 0.379457 -0.906351 -0.185851
vn 0.671608 -0.709044 -0.214941
vn 0.693755 -0.686339 -0.218273
vn 0.877772 -0.402382 -0.260010
vn 0.892176 -0.365491 -0.265400
vn 0.948899 -0.040488 -0.312971
vn 0.947789 0.000278 -0.318897
vn 0.886694 0.456264 -0.074807
vn 0.745535 0.660634 -0.087976
vn 0.749470 0.656915 -0.082200
vn 0.888153 0.454496 -0.067958
vn 0.379635 0.919581 -0.101235
vn 0.384144 0.918047 -0.098101
vn 0.000001 0.994502 -0.104716
vn 0.000001 0.994741 -0.102419
vn -0.379634 0.919581 -0.101235
vn -0.384143 0.918047 -0.098101
vn -0.698620 0.709863 -0.089579
vn -0.703352 0.705810 -0.084431
vn -0.808682 0.582606 -0.081261
vn -0.810958 0.580226 -0.075397
vn -0.981722 0.062949 0.179608
vn -0.982310 0.062783 0.176424
vn -0.998011 0.052696 -0.034587
vn -0.998007 0.052643 -0.034803
vn -0.989923 -0.133724 -0.046588
vn -0.940687 -0.336826 -0.040701
vn -0.935764 -0.351755 -0.024799
vn -0.991012 -0.129072 -0.035159
vn -0.708929 -0.704810 -0.025726
vn -0.703645 -0.710525 -0.006150
vn -0.384143 -0.923142 -0.015571
vn -0.380360 -0.924819 0.005988
vn -0.000000 -0.999928 -0.011999
vn -0.000000 -0.999948 0.010245
vn 0.384143 -0.923142 -0.015571
vn 0.380360 -0.924819 0.005988
vn 0.708929 -0.704810 -0.025726
vn 0.703645 -0.710525 -0.006150
vn 0.949742 -0.310176 -0.042193
vn 0.944142 -0.328487 -0.026297
vn 0.995426 -0.082132 -0.048795
vn 0.996231 -0.078036 -0.037874
vn 0.964402 0.204139 0.168096
vn 0.963512 0.204302 0.172934
vn 0.980344 0.192413 -0.043633
vn 0.980354 0.192438 -0.043294
vn 0.748380 0.661638 -0.046502
vn 0.890754 0.453353 -0.032057
vn 0.382684 0.921599 -0.064877
vn 0.000001 0.997531 -0.070223
vn -0.382683 0.921599 -0.064877
vn -0.703716 0.708732 -0.049822
vn -0.814728 0.578402 -0.040849
vn -0.998400 0.056424 -0.003803
vn -0.998400 0.056410 -0.004011
vn -0.939971 -0.340406 0.024037
vn -0.992788 -0.119594 0.008281
vn -0.707107 -0.705361 0.049655
vn -0.382684 -0.921599 0.064877
vn -0.000000 -0.997531 0.070222
vn 0.382683 -0.921599 0.064877
vn 0.707107 -0.705361 0.049655
vn 0.948221 -0.316821 0.022377
vn 0.997580 -0.069373 0.004746
vn 0.980785 0.194631 -0.013376
vn 0.980785 0.194644 -0.013182
vn 0.746182 0.665683 0.008862
vn 0.887950 0.459498 0.020180
vn 0.382052 0.924111 -0.007460
vn 0.000001 0.999918 -0.012797
vn -0.382051 0.924111 -0.007460
vn -0.701032 0.713112 0.004942
vn -0.810871 0.585113 0.011400
vn -0.997399 0.057832 0.043025
vn -0.997424 0.057839 0.042416
vn -0.937932 -0.337622 0.079338
vn -0.990955 -0.119490 0.061075
vn -0.705939 -0.700162 0.106883
vn -0.382052 -0.916042 0.122080
vn -0.000000 -0.991849 0.127417
vn 0.382051 -0.916042 0.122080
vn 0.705939 -0.700162 0.106883
vn 0.946300 -0.313789 0.077800
vn 0.995981 -0.068813 0.057331
vn 0.979685 0.197716 0.033560
vn 0.979678 0.197725 0.033713
vn 0.736247 0.674408 0.055795
vn 0.878535 0.473664 0.061795
vn 0.379093 0.924304 0.044161
vn 0.000001 0.999211 0.039715
vn -0.379092 0.924304 0.044161
vn -0.690090 0.721880 0.051633
vn -0.797166 0.601306 0.054379
vn -0.995848 0.054814 0.072686
vn -0.995878 0.055018 0.072115
vn -0.934525 -0.336631 0.115511
vn -0.986657 -0.130246 0.097688
vn -0.706067 -0.694162 0.140026
vn -0.382524 -0.911214 0.152853
vn -0.000000 -0.987541 0.157362
vn 0.382523 -0.911214 0.152853
vn 0.706067 -0.694163 0.140026
vn 0.943368 -0.311420 0.114348
vn 0.992501 -0.077921 0.094176
vn 0.977803 0.199489 0.064077
vn 0.977782 0.199504 0.064350
vn 0.743183 0.665352 0.070603
vn 0.873968 0.480520 0.072661
vn 0.381847 0.922176 0.061516
vn 0.000001 0.998333 0.057714
vn -0.381846 0.922176 0.061517
vn -0.690731 0.720076 0.066187
vn -0.789994 0.609508 0.066404
vn -0.985077 0.029346 -0.169593
vn -0.986480 0.030126 -0.161086
vn -0.931135 -0.343924 0.121257
vn -0.985042 -0.136867 0.104688
vn -0.700779 -0.699022 0.142397
vn -0.378863 -0.912710 0.153049
vn -0.000000 -0.987633 0.156784
vn 0.378862 -0.912710 0.153050
vn 0.700779 -0.699022 0.142397
vn 0.940570 -0.317569 0.120320
vn 0.991323 -0.083541 0.101486
vn 0.968556 0.181128 -0.170563
vn 0.967852 0.180676 -0.174979
vn 0.865650 0.368562 0.338839
vn 0.670319 0.678071 0.301484
vn 0.656901 0.691796 0.299831
vn 0.856754 0.391141 0.336127
vn 0.365624 0.888905 0.275984
vn 0.355824 0.893026 0.275487
vn 0.000001 0.963717 0.266925
vn 0.000001 0.963717 0.266925
vn -0.365623 0.888905 0.275984
vn -0.355823 0.893027 0.275486
vn -0.670318 0.678071 0.301484
vn -0.656901 0.691797 0.299831
vn -0.865650 0.368563 0.338839
vn -0.856753 0.391142 0.336127
vn -0.924207 0.012562 0.381685
vn -0.924763 0.037890 0.378653
vn -0.842264 -0.333841 0.423250
vn -0.851404 -0.313138 0.420780
vn -0.637238 -0.620169 0.457514
vn -0.649390 -0.608477 0.456123
vn -0.342225 -0.807810 0.479922
vn -0.350552 -0.804468 0.479526
vn -0.000000 -0.873011 0.487700
vn -0.000000 -0.873011 0.487700
vn 0.342225 -0.807810 0.479923
vn 0.350551 -0.804468 0.479526
vn 0.637237 -0.620169 0.457514
vn 0.649390 -0.608477 0.456123
vn 0.842264 -0.333841 0.423250
vn 0.851404 -0.313139 0.420780
vn 0.924207 0.012561 0.381684
vn 0.924763 0.037889 0.378653
vn 0.881078 0.385180 0.274476
vn 0.674349 0.693810 0.252750
vn 0.621589 0.653530 0.431886
vn 0.812145 0.369047 0.451913
vn 0.364955 0.900029 0.238232
vn 0.336402 0.843616 0.418505
vn 0.000000 0.972444 0.233135
vn 0.000000 0.910365 0.413806
vn -0.364954 0.900030 0.238232
vn -0.336401 0.843616 0.418505
vn -0.674348 0.693810 0.252749
vn -0.621589 0.653531 0.431886
vn -0.881078 0.385181 0.274476
vn -0.812145 0.369048 0.451912
vn -0.953672 0.021127 0.300104
vn -0.879059 0.033476 0.475536
vn -0.881078 -0.342927 0.325732
vn -0.812145 -0.302095 0.499159
vn -0.674348 -0.651557 0.347458
vn -0.621589 -0.586578 0.519185
vn -0.364955 -0.857777 0.361976
vn -0.336401 -0.776664 0.532567
vn -0.000000 -0.930192 0.367074
vn -0.000000 -0.843413 0.537266
vn 0.364955 -0.857777 0.361976
vn 0.336401 -0.776664 0.532567
vn 0.674348 -0.651557 0.347458
vn 0.621589 -0.586578 0.519185
vn 0.881078 -0.342928 0.325732
vn 0.812145 -0.302095 0.499159
vn 0.953672 0.021126 0.300104
vn 0.879059 0.033476 0.475536
vn 0.486608 0.536356 0.689591
vn 0.635783 0.313650 0.705268
vn 0.263350 0.685163 0.679116
vn 0.000000 0.737417 0.675437
vn -0.263349 0.685163 0.679116
vn -0.486607 0.536356 0.689591
vn -0.635783 0.313650 0.705269
vn -0.688166 0.050950 0.723762
vn -0.635783 -0.211750 0.742255
vn -0.486607 -0.434455 0.757933
vn -0.263350 -0.583263 0.768408
vn 0.000000 -0.635517 0.772087
vn 0.263349 -0.583263 0.768408
vn 0.486607 -0.434456 0.757933
vn 0.635783 -0.211749 0.742255
vn 0.688166 0.050950 0.723762
vn 0.582148 0.620572 0.525351
vn 0.760614 0.354139 0.544107
vn 0.315056 0.798597 0.512819
vn 0.000001 0.861110 0.508418
vn -0.315056 0.798597 0.512819
vn -0.582148 0.620573 0.525351
vn -0.760613 0.354140 0.544107
vn -0.823282 0.039861 0.566231
vn -0.760613 -0.274418 0.588355
vn -0.582149 -0.540851 0.607111
vn -0.315056 -0.718875 0.619643
vn -0.000000 -0.781389 0.624044
vn 0.315056 -0.718876 0.619643
vn 0.582149 -0.540851 0.607111
vn 0.760614 -0.274418 0.588355
vn 0.823282 0.039861 0.566231
vn 0.490516 0.539885 0.684045
vn 0.640891 0.315389 0.699849
vn 0.265466 0.689888 0.673485
vn 0.000000 0.742562 0.669777
vn -0.265466 0.689888 0.673485
vn -0.490516 0.539886 0.684045
vn -0.640890 0.315390 0.699849
vn -0.693695 0.050579 0.718491
vn -0.640891 -0.214231 0.737132
vn -0.490517 -0.438726 0.752936
vn -0.265466 -0.588730 0.763495
vn -0.000000 -0.641404 0.767203
vn 0.265465 -0.588730 0.763496
vn 0.490517 -0.438726 0.752936
vn 0.640891 -0.214231 0.737132
vn 0.693695 0.050579 0.718490
vn 0.344265 0.404753 0.847146
vn 0.449802 0.247192 0.858239
vn 0.186317 0.510030 0.839735
vn 0.000000 0.547000 0.837133
vn -0.186317 0.510030 0.839735
vn -0.344264 0.404753 0.847146
vn -0.449802 0.247193 0.858239
vn -0.486863 0.061337 0.871322
vn -0.449803 -0.124514 0.884406
vn -0.344264 -0.282076 0.895497
vn -0.186314 -0.387355 0.902908
vn -0.000000 -0.424322 0.905511
vn 0.186314 -0.387354 0.902909
vn 0.344264 -0.282076 0.895497
vn 0.449803 -0.124516 0.884405
vn 0.486863 0.061336 0.871322
vn -0.000000 -0.070222 -0.997531
vn -0.000000 0.070221 0.997531
vn 0.317197 0.193455 0.928419
vn 0.258612 0.319842 0.911494
vn 0.258635 0.319811 0.911498
vn 0.317206 0.193409 0.928425
vn -0.383165 -0.341320 -0.858304
vn -0.658367 -0.240944 -0.713091
vn -0.655391 -0.242485 -0.715306
vn -0.389994 -0.339580 -0.855915
vn 0.145577 0.412091 0.899438
vn 0.145596 0.412081 0.899439
vn -0.145437 -0.412162 -0.899428
vn -0.145452 -0.412155 -0.899429
vn 0.000000 0.445932 0.895067
vn 0.000000 0.445932 0.895067
vn -0.000000 -0.445945 -0.895060
vn -0.000000 -0.445945 -0.895060
vn -0.145576 0.412090 0.899438
vn -0.145595 0.412081 0.899439
vn 0.145437 -0.412162 -0.899428
vn 0.145452 -0.412155 -0.899429
vn -0.258611 0.319841 0.911494
vn -0.258635 0.319811 0.911498
vn 0.350007 -0.326453 -0.878022
vn 0.348073 -0.327243 -0.878497
vn -0.317197 0.193455 0.928419
vn -0.317206 0.193410 0.928425
vn 0.551690 -0.196616 -0.810543
vn 0.533193 -0.213538 -0.818600
vn -0.316255 0.062977 0.946581
vn -0.316245 0.062933 0.946588
vn 0.586222 -0.093379 -0.804751
vn 0.577192 -0.086056 -0.812061
vn -0.266537 -0.046606 0.962697
vn -0.266514 -0.046637 0.962702
vn 0.384541 0.023821 -0.922801
vn 0.387873 0.022240 -0.921444
vn -0.186997 -0.122579 0.974683
vn -0.186975 -0.122593 0.974685
vn 0.187212 0.122351 -0.974670
vn 0.187195 0.122362 -0.974672
vn -0.094958 -0.164457 0.981803
vn -0.094946 -0.164460 0.981804
vn 0.095111 0.164378 -0.981801
vn 0.095102 0.164381 -0.981802
vn -0.000000 -0.177446 0.984131
vn -0.000000 -0.177446 0.984131
vn 0.000000 0.177429 -0.984133
vn 0.000000 0.177429 -0.984134
vn 0.094958 -0.164457 0.981803
vn 0.094946 -0.164460 0.981804
vn -0.095111 0.164378 -0.981801
vn -0.095101 0.164380 -0.981802
vn 0.186997 -0.122580 0.974683
vn 0.186976 -0.122594 0.974685
vn -0.187212 0.122351 -0.974670
vn -0.187195 0.122362 -0.974672
vn 0.266537 -0.046607 0.962697
vn 0.266515 -0.046637 0.962702
vn -0.394670 0.024063 -0.918508
vn -0.401844 0.020866 -0.915470
vn 0.316255 0.062977 0.946581
vn 0.316245 0.062932 0.946588
vn -0.670472 -0.128251 -0.730766
vn -0.655436 -0.117488 -0.746056
vn -0.654060 -0.143386 0.742728
vn -0.368826 -0.205058 0.906597
vn -0.374817 -0.204239 0.904322
vn -0.653746 -0.143490 0.742986
vn 0.245527 0.182075 -0.952137
vn 0.335185 0.076017 -0.939081
vn 0.335161 0.076059 -0.939086
vn 0.245500 0.182097 -0.952140
vn -0.129004 -0.247116 0.960360
vn -0.128991 -0.247120 0.960361
vn 0.128842 0.247200 -0.960360
vn 0.128825 0.247206 -0.960361
vn -0.000000 -0.268944 0.963156
vn -0.000000 -0.268944 0.963156
vn -0.000000 0.268962 -0.963151
vn -0.000000 0.268962 -0.963151
vn 0.129004 -0.247117 0.960360
vn 0.128991 -0.247121 0.960361
vn -0.128842 0.247201 -0.960360
vn -0.128825 0.247207 -0.960361
vn 0.336951 -0.190991 0.921947
vn 0.333900 -0.191766 0.922895
vn -0.245527 0.182076 -0.952137
vn -0.245500 0.182098 -0.952140
vn 0.552426 -0.087194 0.828989
vn 0.533764 -0.100776 0.839607
vn -0.335186 0.076017 -0.939080
vn -0.335162 0.076059 -0.939086
vn 0.617493 0.014479 0.786443
vn 0.613034 0.024899 0.789664
vn -0.380842 -0.062032 -0.922557
vn -0.380835 -0.061977 -0.922564
vn 0.477547 0.181159 0.859727
vn 0.479741 0.179220 0.858911
vn -0.368181 -0.213700 -0.904862
vn -0.368196 -0.213649 -0.904868
vn 0.291970 0.352863 0.888955
vn 0.291990 0.352839 0.888958
vn -0.292185 -0.352633 -0.888976
vn -0.292212 -0.352601 -0.888979
vn 0.161679 0.450701 0.877912
vn 0.161694 0.450694 0.877912
vn -0.161830 -0.450625 -0.877922
vn -0.161851 -0.450615 -0.877924
vn 0.000000 0.486011 0.873953
vn 0.000000 0.486011 0.873953
vn -0.000000 -0.485999 -0.873960
vn -0.000000 -0.485999 -0.873960
vn -0.161678 0.450701 0.877912
vn -0.161694 0.450694 0.877913
vn 0.161830 -0.450626 -0.877922
vn 0.161851 -0.450616 -0.877923
vn -0.291969 0.352862 0.888956
vn -0.291989 0.352839 0.888959
vn 0.292185 -0.352634 -0.888975
vn 0.292213 -0.352602 -0.888979
vn -0.490308 0.180926 0.852563
vn -0.495849 0.176406 0.850302
vn 0.368181 -0.213700 -0.904862
vn 0.368196 -0.213649 -0.904868
vn -0.699746 -0.032542 0.713650
vn -0.687984 -0.016777 0.725532
vn 0.380841 -0.062032 -0.922557
vn 0.380834 -0.061977 -0.922564
vn -0.959104 0.067654 0.274850
vn -0.959104 0.067654 0.274850
vn -0.795934 0.601332 -0.069918
vn -0.793621 0.604923 -0.065069
vn -0.794070 0.604232 -0.066005
vn -0.795934 0.601332 -0.069918
vn -0.853159 -0.521570 0.009184
vn -0.853734 -0.520701 -0.002792
vn -0.853734 -0.520701 -0.002792
vn -0.853262 -0.521432 0.007207
vn -0.789532 0.612243 -0.042409
vn -0.789537 0.612233 -0.042457
vn -0.853185 -0.520366 0.035992
vn -0.853187 -0.520356 0.036069
vn -0.784421 0.620215 -0.004092
vn -0.784211 0.620489 -0.002683
vn -0.851323 -0.520418 0.066446
vn -0.851043 -0.520665 0.068067
vn -0.781152 0.623769 0.026730
vn -0.781148 0.623676 0.028904
vn -0.845569 -0.527403 0.082816
vn -0.844525 -0.529045 0.082998
vn -0.781085 0.623212 0.038883
vn -0.781085 0.623212 0.038883
vn -0.961523 0.019479 -0.274034
vn -0.961523 0.019479 -0.274034
vn -0.841490 -0.533778 0.083521
vn -0.841490 -0.533778 0.083521
vn 0.941185 0.206503 0.267446
vn 0.941185 0.206503 0.267446
vn 0.921980 -0.386948 -0.014940
vn 0.921009 -0.389533 -0.002603
vn 0.921166 -0.389144 -0.004478
vn 0.921980 -0.386948 -0.014940
vn 0.707289 0.703630 -0.068176
vn 0.708651 0.701964 -0.071128
vn 0.708652 0.701964 -0.071128
vn 0.707561 0.703298 -0.068765
vn 0.920283 -0.390320 0.027007
vn 0.920284 -0.390312 0.027098
vn 0.703556 0.708942 -0.049088
vn 0.703562 0.708934 -0.049121
vn 0.918931 -0.389457 0.062360
vn 0.918785 -0.389538 0.063978
vn 0.696344 0.717557 -0.014729
vn 0.695931 0.717989 -0.013150
vn 0.916004 -0.392453 0.083175
vn 0.915643 -0.393130 0.083944
vn 0.689443 0.724213 0.013599
vn 0.688978 0.724606 0.015970
vn 0.914477 -0.395303 0.086414
vn 0.914477 -0.395303 0.086414
vn 0.944851 0.168644 -0.280743
vn 0.944851 0.168644 -0.280743
vn 0.687108 0.726114 0.025318
vn 0.687108 0.726114 0.025318
s 1
g pSphere1
usemtl aiStandardSurface1SG
f 1/1/1 2/2/2 18/3/3 17/4/4
f 2/2/2 3/5/5 19/6/6 18/3/3
f 3/5/5 4/7/7 20/8/8 19/6/6
f 4/7/7 5/9/9 21/10/10 20/8/8
f 5/9/9 6/11/11 22/12/12 21/10/10
f 6/11/11 7/13/13 23/14/14 22/12/12
f 7/13/13 8/15/15 24/436/16 23/14/14
f 8/431/15 9/17/17 25/18/18 24/16/16
f 9/17/17 10/19/19 26/20/20 25/18/18
f 10/19/19 11/21/21 27/22/22 26/20/20
f 11/21/21 12/23/23 28/24/24 27/22/22
f 12/23/23 13/25/25 29/26/26 28/24/24
f 13/25/25 14/27/27 30/28/28 29/26/26
f 14/27/27 15/29/29 31/30/30 30/28/28
f 15/29/29 16/31/31 32/408/32 31/30/30
f 16/403/31 1/1/1 17/4/4 32/32/32
f 17/4/4 18/3/3 34/33/33 33/34/34
f 18/3/3 19/6/6 35/35/35 34/33/33
f 19/6/6 20/8/8 36/36/36 35/35/35
f 20/8/8 21/10/10 37/37/37 36/36/36
f 21/10/10 22/12/12 38/38/38 37/37/37
f 22/12/12 23/14/14 39/39/39 38/38/38
f 23/14/14 24/436/16 40/435/40 39/39/39
f 24/16/16 25/18/18 41/41/41 40/40/40
f 25/18/18 26/20/20 42/42/42 41/41/41
f 26/20/20 27/22/22 43/43/43 42/42/42
f 27/22/22 28/24/24 44/44/44 43/43/43
f 28/24/24 29/26/26 45/45/45 44/44/44
f 29/26/26 30/28/28 46/46/46 45/45/45
f 30/28/28 31/30/30 47/47/47 46/46/46
f 31/30/30 32/408/32 48/407/48 47/47/47
f 32/32/32 17/4/4 33/34/34 48/48/48
f 33/34/34 34/33/33 50/49/49 49/50/50
f 34/33/33 35/35/35 51/51/51 50/49/49
f 35/35/35 36/36/36 52/52/52 51/51/51
f 36/36/36 37/37/37 53/53/53 52/52/52
f 37/37/37 38/38/38 54/54/54 53/53/53
f 38/38/38 39/39/39 55/55/55 54/54/54
f 39/39/39 40/435/40 56/434/56 55/55/55
f 40/40/40 41/41/41 57/57/57 56/56/56
f 41/41/41 42/42/42 58/58/58 57/57/57
f 42/42/42 43/43/43 59/59/59 58/58/58
f 43/43/43 44/44/44 60/60/60 59/59/59
f 44/44/44 45/45/45 61/61/61 60/60/60
f 45/45/45 46/46/46 62/62/62 61/61/61
f 46/46/46 47/47/47 63/63/63 62/62/62
f 47/47/47 48/407/48 64/406/64 63/63/63
f 48/48/48 33/34/34 49/50/50 64/64/64
f 49/50/50 50/49/49 66/65/65 65/66/66
f 50/49/49 51/51/51 67/67/67 66/65/65
f 51/51/51 52/52/52 68/68/68 67/67/67
f 52/52/52 53/53/53 69/69/69 68/68/68
f 53/53/53 54/54/54 70/70/70 69/69/69
f 54/54/54 55/55/55 71/71/71 70/70/70
f 55/55/55 56/434/56 72/433/72 71/71/71
f 56/56/56 57/57/57 73/73/73 72/72/72
f 57/57/57 58/58/58 74/74/74 73/73/73
f 58/58/58 59/59/59 75/75/75 74/74/74
f 59/59/59 60/60/60 76/76/76 75/75/75
f 60/60/60 61/61/61 77/77/77 76/76/76
f 61/61/61 62/62/62 78/78/78 77/77/77
f 62/62/62 63/63/63 79/79/79 78/78/78
f 63/63/63 64/406/64 80/405/80 79/79/79
f 64/64/64 49/50/50 65/66/66 80/80/80
f 65/66/66 66/65/65 82/81/81 81/82/82
f 66/65/65 67/67/67 83/83/83 82/81/81
f 67/67/67 68/68/68 84/84/84 83/83/83
f 68/68/68 69/69/69 85/85/85 84/84/84
f 69/69/69 70/70/70 86/86/86 85/85/85
f 70/70/70 71/71/71 87/87/87 86/86/86
f 71/71/71 72/433/72 88/432/88 87/87/87
f 72/72/72 73/73/73 89/89/89 88/88/88
f 73/73/73 74/74/74 90/90/90 89/89/89
f 74/74/74 75/75/75 91/91/91 90/90/90
f 75/75/75 76/76/76 92/92/92 91/91/91
f 76/76/76 77/77/77 93/93/93 92/92/92
f 77/77/77 78/78/78 94/94/94 93/93/93
f 78/78/78 79/79/79 95/95/95 94/94/94
f 79/79/79 80/405/80 96/404/96 95/95/95
f 80/80/80 65/66/66 81/82/82 96/96/96
f 81/82/82 82/81/81 98/97/97 97/98/98
f 82/81/81 83/83/83 99/99/99 98/97/97
f 83/83/83 84/84/84 100/100/100 99/99/99
f 84/84/84 85/85/85 101/101/101 100/100/100
f 85/85/85 86/86/86 102/102/102 101/101/101
f 86/86/86 87/87/87 103/103/103 102/102/102
f 87/87/87 88/432/88 104/429/104 103/103/103
f 88/88/88 89/89/89 105/105/105 104/104/104
f 89/89/89 90/90/90 106/106/106 105/105/105
f 90/90/90 91/91/91 107/107/107 106/106/106
f 91/91/91 92/92/92 108/108/108 107/107/107
f 92/92/92 93/93/93 109/109/109 108/108/108
f 93/93/93 94/94/94 110/110/110 109/109/109
f 94/94/94 95/95/95 111/111/111 110/110/110
f 95/95/95 96/404/96 112/402/112 111/111/111
f 96/96/96 81/82/82 97/98/98 112/112/112
s 2
f 307/113/113 308/445/114 309/115/115 310/116/116
f 308/445/114 311/444/117 312/118/118 309/115/115
f 311/444/117 313/443/119 314/120/120 312/118/118
f 313/443/119 315/442/121 316/122/122 314/120/120
f 315/442/121 317/441/123 318/124/124 316/122/122
f 317/441/123 319/439/125 320/126/126 318/124/124
f 319/439/125 321/440/127 322/428/128 320/126/126
f 321/127/127 323/129/129 324/130/130 322/128/128
f 323/129/129 325/131/131 326/132/132 324/130/130
f 325/131/131 327/133/133 328/134/134 326/132/132
f 327/133/133 329/135/135 330/136/136 328/134/134
f 329/135/135 331/137/137 332/138/138 330/136/136
f 331/137/137 333/139/139 334/140/140 332/138/138
f 333/139/139 335/141/141 336/142/142 334/140/140
f 335/141/141 337/399/143 338/400/144 336/142/142
f 337/437/143 307/113/113 310/116/116 338/144/144
s 3
f 113/145/145 114/146/146 130/147/147 129/148/148
f 114/146/146 115/149/149 131/150/150 130/147/147
f 115/149/149 116/151/151 132/152/152 131/150/150
f 116/151/151 117/153/153 133/154/154 132/152/152
f 117/153/153 118/155/155 134/156/156 133/154/154
f 118/155/155 119/157/157 135/158/158 134/156/156
s 4
f 371/159/159 372/160/160 373/161/161 374/162/162
s 5
f 120/163/163 121/164/164 137/165/165 136/166/166
f 121/164/164 122/167/167 138/168/168 137/165/165
f 122/167/167 123/169/169 139/170/170 138/168/168
f 123/169/169 124/171/171 140/172/172 139/170/170
f 124/171/171 125/173/173 141/174/174 140/172/172
f 125/173/173 126/175/175 142/176/176 141/174/174
f 126/175/175 127/177/177 143/178/178 142/176/176
f 127/177/177 128/401/179 144/398/180 143/178/178
s 6
f 383/181/181 384/182/182 385/183/183 386/184/184
s 3
f 129/148/148 130/147/147 146/185/185 145/186/186
f 130/147/147 131/150/150 147/187/187 146/185/185
f 131/150/150 132/152/152 148/188/188 147/187/187
f 132/152/152 133/154/154 149/189/189 148/188/188
f 133/154/154 134/156/156 150/190/190 149/189/189
f 134/156/156 135/158/158 151/191/191 150/190/190
s 4
f 374/162/162 373/161/161 375/192/192 376/193/193
s 5
f 136/166/166 137/165/165 153/194/194 152/195/195
f 137/165/165 138/168/168 154/196/196 153/194/194
f 138/168/168 139/170/170 155/197/197 154/196/196
f 139/170/170 140/172/172 156/198/198 155/197/197
f 140/172/172 141/174/174 157/199/199 156/198/198
f 141/174/174 142/176/176 158/200/200 157/199/199
f 142/176/176 143/178/178 159/201/201 158/200/200
f 143/178/178 144/398/180 160/397/202 159/201/201
s 6
f 386/184/184 385/183/183 387/203/203 388/204/204
s 3
f 145/186/186 146/185/185 162/205/205 161/206/206
f 146/185/185 147/187/187 163/207/207 162/205/205
f 147/187/187 148/188/188 164/208/208 163/207/207
f 148/188/188 149/189/189 165/209/209 164/208/208
f 149/189/189 150/190/190 166/210/210 165/209/209
f 150/190/190 151/191/191 167/211/211 166/210/210
s 4
f 376/193/193 375/192/192 377/212/212 378/213/213
s 5
f 152/195/195 153/194/194 169/214/214 168/215/215
f 153/194/194 154/196/196 170/216/216 169/214/214
f 154/196/196 155/197/197 171/217/217 170/216/216
f 155/197/197 156/198/198 172/218/218 171/217/217
f 156/198/198 157/199/199 173/219/219 172/218/218
f 157/199/199 158/200/200 174/220/220 173/219/219
f 158/200/200 159/201/201 175/221/221 174/220/220
f 159/201/201 160/397/202 176/396/222 175/221/221
s 6
f 388/204/204 387/203/203 389/223/223 390/224/224
s 3
f 161/206/206 162/205/205 178/225/225 177/226/226
f 162/205/205 163/207/207 179/227/227 178/225/225
f 163/207/207 164/208/208 180/228/228 179/227/227
f 164/208/208 165/209/209 181/229/229 180/228/228
f 165/209/209 166/210/210 182/230/230 181/229/229
f 166/210/210 167/211/211 183/231/231 182/230/230
s 4
f 378/213/213 377/212/212 379/232/232 380/233/233
s 5
f 168/215/215 169/214/214 185/234/234 184/235/235
f 169/214/214 170/216/216 186/236/236 185/234/234
f 170/216/216 171/217/217 187/237/237 186/236/236
f 171/217/217 172/218/218 188/238/238 187/237/237
f 172/218/218 173/219/219 189/239/239 188/238/238
f 173/219/219 174/220/220 190/240/240 189/239/239
f 174/220/220 175/221/221 191/241/241 190/240/240
f 175/221/221 176/396/222 192/395/242 191/241/241
s 6
f 390/224/224 389/223/223 391/243/243 392/244/244
s 3
f 177/226/226 178/225/225 194/245/245 193/246/246
f 178/225/225 179/227/227 195/247/247 194/245/245
f 179/227/227 180/228/228 196/248/248 195/247/247
f 180/228/228 181/229/229 197/249/249 196/248/248
f 181/229/229 182/230/230 198/250/250 197/249/249
f 182/230/230 183/231/231 199/251/251 198/250/250
s 4
f 380/233/233 379/232/232 381/252/252 382/253/253
s 5
f 184/235/235 185/234/234 201/254/254 200/255/255
f 185/234/234 186/236/236 202/256/256 201/254/254
f 186/236/236 187/237/237 203/257/257 202/256/256
f 187/237/237 188/238/238 204/258/258 203/257/257
f 188/238/238 189/239/239 205/259/259 204/258/258
f 189/239/239 190/240/240 206/260/260 205/259/259
f 190/240/240 191/241/241 207/261/261 206/260/260
f 191/241/241 192/395/242 208/412/262 207/261/261
s 6
f 392/244/244 391/243/243 393/263/263 394/264/264
s 7
f 339/265/265 340/266/266 341/267/267 342/447/268
f 340/266/266 343/269/269 344/270/270 341/267/267
f 343/269/269 345/271/271 346/272/272 344/270/270
f 345/271/271 347/273/273 348/274/274 346/272/272
f 347/273/273 349/275/275 350/276/276 348/274/274
f 349/275/275 351/277/277 352/278/278 350/276/276
f 351/277/277 353/419/279 354/420/280 352/278/278
f 353/279/279 355/281/281 356/282/282 354/280/280
f 355/281/281 357/283/283 358/284/284 356/282/282
f 357/283/283 359/285/285 360/286/286 358/284/284
f 359/285/285 361/287/287 362/288/288 360/286/286
f 361/287/287 363/289/289 364/290/290 362/288/288
f 363/289/289 365/291/291 366/292/292 364/290/290
f 365/291/291 367/293/293 368/294/294 366/292/292
f 367/293/293 369/409/295 370/410/296 368/294/294
f 369/295/295 339/265/265 342/447/268 370/296/296
s 8
f 209/297/297 210/298/298 226/299/299 225/300/300
f 210/298/298 211/301/301 227/302/302 226/299/299
f 211/301/301 212/303/303 228/304/304 227/302/302
f 212/303/303 213/305/305 229/306/306 228/304/304
f 213/305/305 214/307/307 230/308/308 229/306/306
f 214/307/307 215/309/309 231/310/310 230/308/308
f 215/309/309 216/311/311 232/426/312 231/310/310
f 216/421/311 217/313/313 233/314/314 232/312/312
f 217/313/313 218/315/315 234/316/316 233/314/314
f 218/315/315 219/317/317 235/318/318 234/316/316
f 219/317/317 220/319/319 236/320/320 235/318/318
f 220/319/319 221/321/321 237/322/322 236/320/320
f 221/321/321 222/323/323 238/324/324 237/322/322
f 222/323/323 223/325/325 239/326/326 238/324/324
f 223/325/325 224/327/327 240/417/328 239/326/326
f 224/411/327 209/297/297 225/300/300 240/328/328
f 225/300/300 226/299/299 242/329/329 241/330/330
f 226/299/299 227/302/302 243/331/331 242/329/329
f 227/302/302 228/304/304 244/332/332 243/331/331
f 228/304/304 229/306/306 245/333/333 244/332/332
f 229/306/306 230/308/308 246/334/334 245/333/333
f 230/308/308 231/310/310 247/335/335 246/334/334
f 231/310/310 232/426/312 248/425/336 247/335/335
f 232/312/312 233/314/314 249/337/337 248/336/336
f 233/314/314 234/316/316 250/338/338 249/337/337
f 234/316/316 235/318/318 251/339/339 250/338/338
f 235/318/318 236/320/320 252/340/340 251/339/339
f 236/320/320 237/322/322 253/341/341 252/340/340
f 237/322/322 238/324/324 254/342/342 253/341/341
f 238/324/324 239/326/326 255/343/343 254/342/342
f 239/326/326 240/417/328 256/416/344 255/343/343
f 240/328/328 225/300/300 241/330/330 256/344/344
f 241/330/330 242/329/329 258/345/345 257/346/346
f 242/329/329 243/331/331 259/347/347 258/345/345
f 243/331/331 244/332/332 260/348/348 259/347/347
f 244/332/332 245/333/333 261/349/349 260/348/348
f 245/333/333 246/334/334 262/350/350 261/349/349
f 246/334/334 247/335/335 263/351/351 262/350/350
f 247/335/335 248/425/336 264/424/352 263/351/351
f 248/336/336 249/337/337 265/353/353 264/352/352
f 249/337/337 250/338/338 266/354/354 265/353/353
f 250/338/338 251/339/339 267/355/355 266/354/354
f 251/339/339 252/340/340 268/356/356 267/355/355
f 252/340/340 253/341/341 269/357/357 268/356/356
f 253/341/341 254/342/342 270/358/358 269/357/357
f 254/342/342 255/343/343 271/359/359 270/358/358
f 255/343/343 256/416/344 272/415/360 271/359/359
f 256/344/344 241/330/330 257/346/346 272/360/360
f 257/346/346 258/345/345 274/361/361 273/362/362
f 258/345/345 259/347/347 275/363/363 274/361/361
f 259/347/347 260/348/348 276/364/364 275/363/363
f 260/348/348 261/349/349 277/365/365 276/364/364
f 261/349/349 262/350/350 278/366/366 277/365/365
f 262/350/350 263/351/351 279/367/367 278/366/366
f 263/351/351 264/424/352 280/423/368 279/367/367
f 264/352/352 265/353/353 281/369/369 280/368/368
f 265/353/353 266/354/354 282/370/370 281/369/369
f 266/354/354 267/355/355 283/371/371 282/370/370
f 267/355/355 268/356/356 284/372/372 283/371/371
f 268/356/356 269/357/357 285/373/373 284/372/372
f 269/357/357 270/358/358 286/374/374 285/373/373
f 270/358/358 271/359/359 287/375/375 286/374/374
f 271/359/359 272/415/360 288/414/376 287/375/375
f 272/360/360 257/346/346 273/362/362 288/376/376
f 273/362/362 274/361/361 290/377/377 289/378/378
f 274/361/361 275/363/363 291/379/379 290/377/377
f 275/363/363 276/364/364 292/380/380 291/379/379
f 276/364/364 277/365/365 293/381/381 292/380/380
f 277/365/365 278/366/366 294/382/382 293/381/381
f 278/366/366 279/367/367 295/383/383 294/382/382
f 279/367/367 280/423/368 296/422/384 295/383/383
f 280/368/368 281/369/369 297/385/385 296/384/384
f 281/369/369 282/370/370 298/386/386 297/385/385
f 282/370/370 283/371/371 299/387/387 298/386/386
f 283/371/371 284/372/372 300/388/388 299/387/387
f 284/372/372 285/373/373 301/389/389 300/388/388
f 285/373/373 286/374/374 302/390/390 301/389/389
f 286/374/374 287/375/375 303/391/391 302/390/390
f 287/375/375 288/414/376 304/413/392 303/391/391
f 288/376/376 273/362/362 289/378/378 304/392/392
s 1
f 2/2/2 1/1/1 305/393/393
f 3/5/5 2/2/2 305/393/393
f 4/7/7 3/5/5 305/393/393
f 5/9/9 4/7/7 305/393/393
f 6/11/11 5/9/9 305/393/393
f 7/13/13 6/11/11 305/393/393
f 8/15/15 7/13/13 305/393/393
f 9/17/17 8/431/15 305/430/393
f 10/19/19 9/17/17 305/430/393
f 11/21/21 10/19/19 305/430/393
f 12/23/23 11/21/21 305/430/393
f 13/25/25 12/23/23 305/430/393
f 14/27/27 13/25/25 305/430/393
f 15/29/29 14/27/27 305/430/393
f 16/31/31 15/29/29 305/430/393
f 1/1/1 16/403/31 305/393/393
s 8
f 289/378/378 290/377/377 306/418/394
f 290/377/377 291/379/379 306/418/394
f 291/379/379 292/380/380 306/418/394
f 292/380/380 293/381/381 306/418/394
f 293/381/381 294/382/382 306/418/394
f 294/382/382 295/383/383 306/418/394
f 295/383/383 296/422/384 306/418/394
f 296/384/384 297/385/385 306/394/394
f 297/385/385 298/386/386 306/394/394
f 298/386/386 299/387/387 306/394/394
f 299/387/387 300/388/388 306/394/394
f 300/388/388 301/389/389 306/394/394
f 301/389/389 302/390/390 306/394/394
f 302/390/390 303/391/391 306/394/394
f 303/391/391 304/413/392 306/394/394
f 304/392/392 289/378/378 306/418/394
s 9
f 97/98/395 98/97/396 308/114/397 307/438/398
s 10
f 114/146/399 113/145/400 310/116/401 309/115/402
s 9
f 98/97/396 99/99/403 311/117/404 308/114/397
s 10
f 115/149/405 114/146/399 309/115/402 312/118/406
s 9
f 99/99/403 100/100/407 313/119/408 311/117/404
s 10
f 116/151/409 115/149/405 312/118/406 314/120/410
s 9
f 100/100/407 101/101/411 315/121/412 313/119/408
s 10
f 117/153/413 116/151/409 314/120/410 316/122/414
s 9
f 101/101/411 102/102/415 317/123/416 315/121/412
s 10
f 118/155/417 117/153/413 316/122/414 318/124/418
s 9
f 102/102/415 103/103/419 319/125/420 317/123/416
s 10
f 119/157/421 118/155/417 318/124/418 320/126/422
s 9
f 103/103/419 104/429/423 321/427/424 319/125/420
s 10
f 120/163/425 119/157/421 320/126/422 322/428/426
s 9
f 104/104/423 105/105/427 323/129/428 321/127/424
s 10
f 121/164/429 120/163/425 322/128/426 324/130/430
s 9
f 105/105/427 106/106/431 325/131/432 323/129/428
s 10
f 122/167/433 121/164/429 324/130/430 326/132/434
s 9
f 106/106/431 107/107/435 327/133/436 325/131/432
s 10
f 123/169/437 122/167/433 326/132/434 328/134/438
s 9
f 107/107/435 108/108/439 329/135/440 327/133/436
s 10
f 124/171/441 123/169/437 328/134/438 330/136/442
s 9
f 108/108/439 109/109/443 331/137/444 329/135/440
s 10
f 125/173/445 124/171/441 330/136/442 332/138/446
s 9
f 109/109/443 110/110/447 333/139/448 331/137/444
s 10
f 126/175/449 125/173/445 332/138/446 334/140/450
s 9
f 110/110/447 111/111/451 335/141/452 333/139/448
s 10
f 127/177/453 126/175/449 334/140/450 336/142/454
s 9
f 111/111/451 112/402/455 337/399/456 335/141/452
s 10
f 128/401/457 127/177/453 336/142/454 338/400/458
s 9
f 112/112/455 97/98/395 307/438/398 337/143/456
s 10
f 113/145/400 128/179/457 338/144/458 310/116/401
s 11
f 193/246/459 194/245/460 340/266/461 339/265/462
s 12
f 210/298/463 209/297/464 342/268/465 341/454/466
s 11
f 194/245/460 195/247/467 343/269/468 340/266/461
s 12
f 211/301/469 210/298/463 341/454/466 344/453/470
s 11
f 195/247/467 196/248/471 345/271/472 343/269/468
s 12
f 212/303/473 211/301/469 344/453/470 346/452/474
s 11
f 196/248/471 197/249/475 347/273/476 345/271/472
s 12
f 213/305/477 212/303/473 346/452/474 348/451/478
s 11
f 197/249/475 198/250/479 349/275/480 347/273/476
s 12
f 214/307/481 213/305/477 348/451/478 350/450/482
s 11
f 198/250/479 199/251/483 351/277/484 349/275/480
s 12
f 215/309/485 214/307/481 350/450/482 352/448/486
s 11
f 199/251/483 200/255/487 353/419/488 351/277/484
s 12
f 216/311/489 215/309/485 352/448/486 354/449/490
s 11
f 200/255/487 201/254/491 355/281/492 353/279/488
s 12
f 217/313/493 216/421/489 354/280/490 356/282/494
s 11
f 201/254/491 202/256/495 357/283/496 355/281/492
s 12
f 218/315/497 217/313/493 356/282/494 358/284/498
s 11
f 202/256/495 203/257/499 359/285/500 357/283/496
s 12
f 219/317/501 218/315/497 358/284/498 360/286/502
s 11
f 203/257/499 204/258/503 361/287/504 359/285/500
s 12
f 220/319/505 219/317/501 360/286/502 362/288/506
s 11
f 204/258/503 205/259/507 363/289/508 361/287/504
s 12
f 221/321/509 220/319/505 362/288/506 364/290/510
s 11
f 205/259/507 206/260/511 365/291/512 363/289/508
s 12
f 222/323/513 221/321/509 364/290/510 366/292/514
s 11
f 206/260/511 207/261/515 367/293/516 365/291/512
s 12
f 223/325/517 222/323/513 366/292/514 368/294/518
s 11
f 207/261/515 208/412/519 369/409/520 367/293/516
s 12
f 224/327/521 223/325/517 368/294/518 370/410/522
s 11
f 208/262/519 193/246/459 339/265/462 369/295/520
s 12
f 209/297/464 224/411/521 370/446/522 342/268/465
s 4
f 119/157/523 120/163/524 372/160/160 371/159/159
s 13
f 120/163/525 136/166/526 373/161/527 372/160/528
s 14
f 135/158/529 119/157/530 371/159/531 374/162/532
s 13
f 136/166/526 152/195/533 375/192/534 373/161/527
s 14
f 151/191/535 135/158/529 374/162/532 376/193/536
s 13
f 152/195/533 168/215/537 377/212/538 375/192/534
s 14
f 167/211/539 151/191/535 376/193/536 378/213/540
s 13
f 168/215/537 184/235/541 379/232/542 377/212/538
s 14
f 183/231/543 167/211/539 378/213/540 380/233/544
s 13
f 184/235/541 200/255/545 381/252/546 379/232/542
s 4
f 200/255/547 199/251/548 382/253/253 381/252/252
s 14
f 199/251/549 183/231/543 380/233/544 382/253/550
s 6
f 128/179/551 113/145/552 384/182/182 383/181/181
s 15
f 113/145/553 129/148/554 385/183/555 384/182/556
s 16
f 144/180/557 128/179/558 383/181/559 386/184/560
s 15
f 129/148/554 145/186/561 387/203/562 385/183/555
s 16
f 160/202/563 144/180/557 386/184/560 388/204/564
s 15
f 145/186/561 161/206/565 389/223/566 387/203/562
s 16
f 176/222/567 160/202/563 388/204/564 390/224/568
s 15
f 161/206/565 177/226/569 391/243/570 389/223/566
s 16
f 192/242/571 176/222/567 390/224/568 392/244/572
s 15
f 177/226/569 193/246/573 393/263/574 391/243/570
s 6
f 193/246/575 208/262/576 394/264/264 393/263/263
s 16
f 208/262/577 192/242/571 392/244/572 394/264/578
